<?xml version="1.0" encoding="utf-8"?>
<!-- Generator: Adobe Illustrator 16.0.0, SVG Export Plug-In . SVG Version: 6.00 Build 0)  -->
<!DOCTYPE svg PUBLIC "-//W3C//DTD SVG 1.1//EN" "http://www.w3.org/Graphics/SVG/1.1/DTD/svg11.dtd">
<svg version="1.1" id="Layer_1" xmlns="http://www.w3.org/2000/svg" xmlns:xlink="http://www.w3.org/1999/xlink" x="0px" y="0px"
	 width="294.111px" height="51.758px" viewBox="0 0 294.111 51.758" enable-background="new 0 0 294.111 51.758"
	 xml:space="preserve">
<g>
	<g>
		<g>
			<path fill="#FFFFFF" d="M60.612,32.203c0.046,0.807,0.225,1.518,0.538,2.133c0.313,0.617,0.723,1.143,1.228,1.58
				c0.504,0.438,1.091,0.768,1.764,0.993c0.672,0.224,1.4,0.335,2.185,0.335c0.56,0,1.159-0.051,1.798-0.152
				c0.639-0.1,1.231-0.285,1.78-0.555c0.55-0.268,1.004-0.643,1.362-1.125c0.358-0.48,0.537-1.092,0.537-1.832
				c0-0.963-0.291-1.689-0.873-2.184c-0.583-0.494-1.317-0.875-2.201-1.143c-0.886-0.27-1.838-0.488-2.856-0.654
				c-1.021-0.168-1.973-0.422-2.857-0.758s-1.619-0.812-2.201-1.428c-0.583-0.617-0.874-1.518-0.874-2.707
				c0-0.85,0.19-1.562,0.571-2.132c0.381-0.573,0.868-1.026,1.462-1.362s1.261-0.576,2-0.723s1.479-0.219,2.218-0.219
				c0.896,0,1.736,0.102,2.521,0.304c0.783,0.2,1.462,0.526,2.033,0.974c0.57,0.447,1.019,1.02,1.345,1.715
				c0.324,0.693,0.486,1.533,0.486,2.52h-1.276c0-0.783-0.13-1.457-0.387-2.016c-0.258-0.561-0.617-1.014-1.075-1.361
				c-0.46-0.348-1.004-0.605-1.63-0.773c-0.628-0.168-1.3-0.252-2.018-0.252c-0.583,0-1.171,0.057-1.765,0.168
				c-0.593,0.111-1.126,0.303-1.596,0.57c-0.471,0.271-0.857,0.617-1.159,1.043c-0.303,0.426-0.454,0.941-0.454,1.545
				c0,0.695,0.168,1.256,0.504,1.682s0.778,0.768,1.328,1.025c0.548,0.258,1.164,0.465,1.848,0.621s1.372,0.314,2.067,0.471
				c0.851,0.156,1.652,0.342,2.403,0.555c0.75,0.213,1.399,0.504,1.948,0.873c0.55,0.369,0.98,0.846,1.294,1.428
				c0.314,0.584,0.472,1.322,0.472,2.219c0,0.941-0.214,1.715-0.64,2.318c-0.426,0.605-0.963,1.094-1.612,1.463
				c-0.65,0.369-1.373,0.627-2.168,0.773c-0.796,0.145-1.574,0.219-2.336,0.219c-0.985,0-1.899-0.129-2.738-0.387
				c-0.841-0.258-1.575-0.65-2.202-1.178c-0.627-0.523-1.121-1.17-1.479-1.932c-0.357-0.76-0.549-1.646-0.57-2.654H60.612z"/>
			<path fill="#FFFFFF" d="M75.802,13.953h1.276v3.461h-1.276V13.953z M75.802,20.676h1.276V37.95h-1.276V20.676z"/>
			<path fill="#FFFFFF" d="M80.506,20.676h1.276v3.527h0.067c0.135-0.537,0.37-1.047,0.706-1.529c0.336-0.48,0.745-0.9,1.227-1.26
				c0.481-0.357,1.02-0.639,1.613-0.839c0.594-0.202,1.215-0.304,1.865-0.304c0.829,0,1.547,0.107,2.15,0.318
				c0.605,0.215,1.12,0.494,1.547,0.842c0.426,0.348,0.762,0.738,1.007,1.176c0.247,0.438,0.416,0.881,0.506,1.328h0.066
				c0.516-1.211,1.204-2.123,2.067-2.738c0.862-0.617,1.999-0.926,3.411-0.926c0.783,0,1.507,0.117,2.168,0.354
				c0.66,0.234,1.231,0.594,1.714,1.075c0.48,0.481,0.856,1.093,1.126,1.831c0.269,0.74,0.403,1.613,0.403,2.621V37.95h-1.277
				V26.119c0-1.098-0.168-1.96-0.504-2.588c-0.336-0.627-0.734-1.104-1.193-1.428c-0.46-0.324-0.919-0.527-1.378-0.605
				c-0.46-0.078-0.812-0.117-1.059-0.117c-0.784,0-1.507,0.135-2.168,0.402c-0.661,0.27-1.232,0.674-1.714,1.211
				c-0.482,0.537-0.857,1.206-1.126,2c-0.269,0.795-0.403,1.709-0.403,2.738V37.95h-1.277V26.119c0-1.076-0.163-1.932-0.487-2.57
				s-0.705-1.115-1.143-1.43c-0.437-0.312-0.885-0.514-1.344-0.604c-0.46-0.09-0.824-0.135-1.093-0.135
				c-0.605,0-1.232,0.123-1.883,0.369c-0.648,0.246-1.242,0.627-1.78,1.143c-0.538,0.517-0.975,1.176-1.312,1.982
				c-0.336,0.807-0.504,1.76-0.504,2.857V37.95h-1.276V20.676z"/>
			<path fill="#FFFFFF" d="M107.423,24.641h0.101c0.135-0.426,0.358-0.896,0.672-1.412c0.314-0.514,0.729-0.99,1.244-1.428
				c0.515-0.438,1.137-0.801,1.865-1.092c0.728-0.291,1.562-0.438,2.504-0.438c1.32,0,2.47,0.246,3.445,0.74
				c0.975,0.492,1.78,1.154,2.419,1.982s1.114,1.793,1.429,2.891c0.313,1.098,0.47,2.252,0.47,3.463c0,1.32-0.157,2.531-0.471,3.627
				c-0.315,1.101-0.792,2.045-1.433,2.84c-0.64,0.797-1.448,1.418-2.426,1.867c-0.976,0.447-2.128,0.672-3.452,0.672
				c-1.438,0-2.719-0.314-3.841-0.941c-1.123-0.627-1.942-1.646-2.459-3.059h-0.066l-0.001,9.779h-1.243V20.676h1.243V24.641z
				 M113.791,37.244c1.123,0,2.095-0.213,2.915-0.639c0.819-0.424,1.493-0.996,2.021-1.715c0.528-0.717,0.921-1.551,1.18-2.502
				c0.258-0.953,0.388-1.967,0.388-3.041c0-0.988-0.125-1.957-0.371-2.908c-0.247-0.953-0.629-1.805-1.146-2.555
				c-0.516-0.75-1.184-1.355-2.005-1.814c-0.819-0.459-1.813-0.689-2.981-0.689c-1.146,0-2.123,0.225-2.932,0.672
				c-0.808,0.449-1.466,1.041-1.971,1.781c-0.506,0.741-0.871,1.586-1.097,2.537c-0.224,0.954-0.336,1.945-0.336,2.977
				c0,1.029,0.102,2.02,0.304,2.973c0.201,0.953,0.545,1.793,1.027,2.52c0.483,0.729,1.135,1.312,1.954,1.748
				C111.562,37.025,112.578,37.244,113.791,37.244"/>
			<rect x="124.191" y="13.953" fill="#FFFFFF" width="1.277" height="23.997"/>
			<path fill="#FFFFFF" d="M126.778,20.676h1.512l6.42,15.762l5.915-15.762h1.445l-7.394,19.121
				c-0.358,0.852-0.689,1.586-0.991,2.203c-0.303,0.615-0.646,1.068-1.026,1.359c-0.448,0.359-0.979,0.578-1.596,0.656
				c-0.617,0.078-1.428,0.117-2.437,0.117v-1.107c0.918,0,1.636-0.074,2.151-0.219c0.515-0.146,0.996-0.443,1.445-0.891
				c0.246-0.248,0.504-0.701,0.772-1.361c0.269-0.662,0.604-1.562,1.008-2.707L126.778,20.676z"/>
			<polygon fill="#FFFFFF" points="140.617,20.575 144.784,20.575 149.188,33.916 149.254,33.916 153.489,20.575 157.455,20.575 
				151.237,37.95 146.936,37.95 			"/>
			<path fill="#FFFFFF" d="M159.201,13.953h3.831v3.629h-3.831V13.953z M159.201,20.575h3.831V37.95h-3.831V20.575z"/>
			<path fill="#FFFFFF" d="M164.778,20.575h2.891v-5.21h3.831v5.21h3.462v2.854H171.5v9.277c0,0.402,0.017,0.75,0.051,1.041
				c0.034,0.293,0.112,0.537,0.235,0.74c0.122,0.201,0.308,0.352,0.555,0.453c0.246,0.102,0.582,0.152,1.008,0.152
				c0.27,0,0.538-0.006,0.806-0.018c0.271-0.012,0.538-0.051,0.808-0.117v2.957c-0.426,0.045-0.84,0.09-1.244,0.135
				c-0.402,0.043-0.817,0.066-1.243,0.066c-1.008,0-1.821-0.096-2.437-0.285c-0.616-0.189-1.099-0.471-1.445-0.84
				s-0.583-0.836-0.706-1.395c-0.123-0.561-0.196-1.199-0.218-1.916V23.43h-2.891V20.575z"/>
			<path fill="#FFFFFF" d="M190.923,34.084c0,0.471,0.062,0.807,0.185,1.01c0.123,0.201,0.363,0.301,0.723,0.301h0.403
				c0.156,0,0.337-0.021,0.538-0.066v2.654c-0.135,0.045-0.309,0.096-0.521,0.152c-0.213,0.055-0.432,0.105-0.656,0.15
				c-0.224,0.045-0.447,0.078-0.671,0.102c-0.225,0.022-0.415,0.033-0.571,0.033c-0.784,0-1.435-0.156-1.949-0.47
				c-0.516-0.313-0.853-0.862-1.009-1.647c-0.762,0.74-1.697,1.277-2.806,1.613c-1.109,0.336-2.18,0.504-3.21,0.504
				c-0.785,0-1.536-0.105-2.252-0.318c-0.717-0.213-1.35-0.526-1.898-0.941c-0.55-0.414-0.986-0.941-1.312-1.58
				s-0.486-1.383-0.486-2.234c0-1.076,0.195-1.949,0.588-2.623c0.392-0.672,0.906-1.197,1.546-1.578
				c0.639-0.381,1.355-0.656,2.15-0.824s1.597-0.297,2.403-0.387c0.694-0.133,1.355-0.229,1.983-0.285
				c0.627-0.055,1.181-0.15,1.663-0.285c0.481-0.135,0.862-0.342,1.143-0.623c0.28-0.279,0.42-0.699,0.42-1.26
				c0-0.492-0.117-0.895-0.353-1.209s-0.526-0.555-0.873-0.723c-0.349-0.168-0.735-0.281-1.16-0.336
				c-0.426-0.057-0.829-0.084-1.21-0.084c-1.075,0-1.96,0.223-2.655,0.672c-0.694,0.447-1.087,1.143-1.176,2.084h-3.831
				c0.066-1.121,0.336-2.051,0.806-2.791c0.472-0.738,1.07-1.332,1.798-1.781c0.729-0.447,1.552-0.76,2.471-0.939
				s1.859-0.27,2.823-0.27c0.852,0,1.691,0.09,2.521,0.27s1.574,0.471,2.234,0.873c0.661,0.402,1.193,0.924,1.598,1.562
				c0.402,0.639,0.604,1.418,0.604,2.336V34.084z M187.091,29.244c-0.583,0.383-1.299,0.611-2.15,0.689s-1.703,0.197-2.554,0.354
				c-0.403,0.066-0.796,0.163-1.177,0.285c-0.382,0.123-0.718,0.291-1.009,0.504s-0.521,0.494-0.689,0.84
				c-0.168,0.348-0.252,0.768-0.252,1.262c0,0.426,0.123,0.783,0.37,1.074s0.543,0.521,0.892,0.689
				c0.347,0.168,0.728,0.285,1.142,0.354c0.415,0.066,0.79,0.1,1.126,0.1c0.426,0,0.885-0.055,1.378-0.168
				c0.493-0.111,0.958-0.303,1.396-0.57c0.437-0.27,0.801-0.611,1.092-1.025s0.437-0.924,0.437-1.529V29.244z"/>
			<rect x="193.811" y="13.953" fill="#FFFFFF" width="3.831" height="23.997"/>
			<path fill="#FFFFFF" d="M215.407,12.211v11.123h0.072c0.239-0.695,0.579-1.311,1.021-1.848c0.442-0.539,0.957-1,1.543-1.383
				c0.586-0.381,1.226-0.668,1.919-0.861c0.694-0.189,1.4-0.287,2.117-0.287c1.077,0,1.991,0.133,2.744,0.396
				c0.754,0.262,1.37,0.609,1.848,1.039c0.479,0.432,0.855,0.916,1.132,1.453c0.273,0.539,0.472,1.082,0.591,1.633
				c0.12,0.551,0.191,1.082,0.216,1.596c0.022,0.516,0.036,0.965,0.036,1.346v11.41h-1.364v-11.66c0-0.455-0.036-1.029-0.107-1.723
				s-0.281-1.357-0.628-1.992c-0.347-0.633-0.873-1.178-1.578-1.631c-0.706-0.455-1.682-0.682-2.925-0.682
				c-1.053,0-1.985,0.191-2.798,0.574c-0.813,0.383-1.507,0.914-2.081,1.596s-1.011,1.496-1.31,2.439
				c-0.299,0.945-0.448,1.98-0.448,3.104v9.975h-1.363V12.211H215.407z"/>
			<path fill="#FFFFFF" d="M231.729,28.787v0.215c0,1.076,0.144,2.105,0.432,3.086s0.713,1.842,1.277,2.582
				c0.562,0.742,1.271,1.328,2.121,1.758c0.852,0.432,1.841,0.647,2.969,0.647c1.846,0,3.31-0.485,4.389-1.454
				s1.822-2.314,2.23-4.037h1.363c-0.408,2.154-1.286,3.805-2.637,4.951c-1.352,1.148-3.14,1.723-5.364,1.723
				c-1.362,0-2.553-0.246-3.569-0.736c-1.018-0.488-1.865-1.158-2.548-2.008c-0.682-0.85-1.189-1.854-1.524-3.014
				s-0.502-2.41-0.502-3.75c0-1.291,0.173-2.529,0.52-3.711c0.348-1.186,0.866-2.227,1.562-3.123
				c0.692-0.896,1.56-1.615,2.601-2.152c1.04-0.539,2.266-0.807,3.677-0.807c1.292,0,2.435,0.238,3.427,0.717
				s1.823,1.129,2.493,1.955c0.669,0.824,1.179,1.781,1.525,2.871c0.346,1.088,0.521,2.254,0.521,3.498
				c0,0.119-0.007,0.256-0.019,0.412s-0.018,0.281-0.018,0.377H231.729z M245.29,27.602c-0.048-1.004-0.216-1.955-0.503-2.852
				c-0.289-0.896-0.714-1.686-1.277-2.367c-0.564-0.682-1.248-1.227-2.051-1.633c-0.804-0.406-1.721-0.609-2.752-0.609
				c-1.104,0-2.075,0.209-2.914,0.627c-0.84,0.42-1.547,0.969-2.122,1.65c-0.576,0.682-1.02,1.477-1.331,2.387
				c-0.312,0.908-0.504,1.842-0.576,2.797H245.29z"/>
			<path fill="#FFFFFF" d="M260.643,34.168h-0.071c-0.216,0.551-0.527,1.07-0.934,1.561s-0.902,0.928-1.488,1.311
				c-0.587,0.383-1.251,0.68-1.991,0.896c-0.742,0.215-1.557,0.322-2.44,0.322c-1.961,0-3.479-0.424-4.556-1.273
				c-1.077-0.85-1.615-2.158-1.615-3.928c0-1.078,0.215-1.955,0.646-2.639c0.43-0.682,0.974-1.218,1.632-1.613
				c0.658-0.395,1.387-0.676,2.188-0.844c0.802-0.166,1.572-0.287,2.314-0.359l2.117-0.178c0.979-0.072,1.752-0.186,2.313-0.342
				c0.562-0.154,0.986-0.371,1.274-0.646c0.286-0.273,0.465-0.627,0.538-1.057c0.071-0.432,0.106-0.969,0.106-1.615
				c0-0.502-0.096-0.969-0.287-1.4c-0.19-0.43-0.489-0.812-0.896-1.146c-0.407-0.336-0.934-0.598-1.578-0.789
				c-0.646-0.191-1.436-0.287-2.368-0.287c-1.65,0-2.983,0.406-4.001,1.219c-1.016,0.814-1.572,2.045-1.668,3.695h-1.363
				c0.096-2.031,0.747-3.557,1.955-4.574c1.208-1.016,2.925-1.525,5.149-1.525c2.224,0,3.844,0.438,4.861,1.311
				c1.016,0.873,1.523,2.016,1.523,3.426V34.42c0,0.262,0.006,0.525,0.019,0.789s0.055,0.502,0.126,0.717s0.19,0.389,0.358,0.521
				c0.167,0.131,0.406,0.197,0.717,0.197c0.239,0,0.575-0.037,1.006-0.109v1.148c-0.359,0.096-0.73,0.145-1.112,0.145
				c-0.551,0-0.987-0.072-1.311-0.217c-0.321-0.143-0.567-0.334-0.734-0.572c-0.168-0.24-0.282-0.521-0.341-0.844
				c-0.061-0.322-0.09-0.676-0.09-1.059V34.168z M260.643,27.352c-0.336,0.406-0.844,0.682-1.524,0.824
				c-0.683,0.145-1.442,0.252-2.279,0.324l-2.296,0.215c-0.67,0.072-1.339,0.174-2.009,0.305c-0.67,0.133-1.273,0.354-1.812,0.664
				c-0.538,0.311-0.975,0.734-1.309,1.273c-0.335,0.539-0.503,1.238-0.503,2.1c0,1.363,0.431,2.373,1.292,3.031
				s2.045,0.987,3.552,0.987c1.554,0,2.786-0.282,3.695-0.845c0.909-0.561,1.603-1.207,2.081-1.938
				c0.478-0.729,0.783-1.434,0.915-2.117c0.131-0.68,0.197-1.141,0.197-1.381V27.352z"/>
			<rect x="265.95" y="12.211" fill="#FFFFFF" width="1.363" height="25.617"/>
			<path fill="#FFFFFF" d="M277.717,20.57h-4.018v12.881c0,0.74,0.082,1.326,0.25,1.758c0.168,0.43,0.425,0.76,0.771,0.986
				s0.766,0.365,1.256,0.412c0.49,0.049,1.059,0.061,1.704,0.037v1.184c-0.694,0.047-1.369,0.041-2.027-0.018
				c-0.657-0.061-1.237-0.24-1.739-0.539s-0.903-0.748-1.202-1.346s-0.425-1.422-0.376-2.475V20.57h-3.409v-1.184h3.409v-5.74h1.363
				v5.74h4.018V20.57z"/>
			<path fill="#FFFFFF" d="M280.872,12.211v11.123h0.072c0.238-0.695,0.579-1.311,1.022-1.848c0.442-0.539,0.956-1,1.542-1.383
				c0.586-0.381,1.226-0.668,1.92-0.861c0.693-0.189,1.399-0.287,2.116-0.287c1.077,0,1.992,0.133,2.745,0.396
				c0.753,0.262,1.369,0.609,1.848,1.039c0.479,0.432,0.855,0.916,1.13,1.453c0.274,0.539,0.473,1.082,0.593,1.633
				c0.119,0.551,0.19,1.082,0.215,1.596c0.023,0.516,0.036,0.965,0.036,1.346v11.41h-1.364v-11.66c0-0.455-0.036-1.029-0.107-1.723
				s-0.281-1.357-0.628-1.992c-0.347-0.633-0.873-1.178-1.578-1.631c-0.707-0.455-1.681-0.682-2.924-0.682
				c-1.054,0-1.985,0.191-2.799,0.574s-1.507,0.914-2.081,1.596s-1.01,1.496-1.309,2.439c-0.3,0.945-0.449,1.98-0.449,3.104v9.975
				h-1.363V12.211H280.872z"/>
			<path fill="#FFFFFF" d="M44.049,11.443L24.9,0.533c-1.252-0.715-2.807-0.711-4.056,0.01L2.16,11.326
				c-1.258,0.727-2.039,2.078-2.039,3.531v10.521c0,2.246,1.829,4.076,4.077,4.076h4.478c0.072,0,0.144-0.01,0.212-0.021
				c2.697-0.01,5.394-0.012,8.091,0.018c0.924,0.01,1.461-0.305,1.758-1.174c0.225-0.658,0.549-1.283,0.885-2.055
				c0.478,2.004,0.924,3.854,1.354,5.705c0.123,0.533,0.356,0.957,0.934,1.043c0.589,0.09,0.915-0.285,1.19-0.744
				c0.855-1.424,1.735-2.836,2.58-4.268c0.194-0.33,0.419-0.436,0.79-0.424c0.849,0.027,1.698,0.021,2.548,0.004
				c0.736-0.014,1.168-0.416,1.164-1.045c-0.003-0.639-0.429-1.016-1.174-1.02c-1.074-0.006-2.151,0.035-3.225-0.014
				c-0.736-0.033-1.196,0.246-1.55,0.881c-0.529,0.949-1.124,1.861-1.762,2.904c-0.192-0.791-0.355-1.457-0.515-2.125
				c-0.344-1.447-0.684-2.895-1.03-4.342c-0.116-0.482-0.399-0.803-0.918-0.852c-0.517-0.049-0.858,0.203-1.071,0.654
				c-0.075,0.156-0.143,0.314-0.211,0.475c-0.566,1.301-1.12,2.607-1.708,3.898c-0.079,0.176-0.322,0.389-0.491,0.391
				c-1.838,0.027-3.675,0.021-5.513,0.008c-0.137-0.002-0.337-0.115-0.397-0.232c-0.839-1.639-1.309-3.365-1.015-5.212
				c0.778-4.897,5.841-7.614,10.373-5.601c0.979,0.436,1.823,1.051,2.543,1.848c0.593,0.656,1.216,0.643,1.824,0.003
				c0.096-0.103,0.187-0.206,0.283-0.306c3.229-3.312,8.79-2.846,11.378,0.959c1.714,2.521,1.651,5.168,0.468,7.859
				c-0.649,1.473-1.648,2.721-2.729,3.898c-2.958,3.229-6.402,5.871-10.002,8.33c-0.246,0.168-0.412,0.146-0.64-0.02
				c-1.078-0.785-2.184-1.533-3.248-2.334c-1.051-0.791-2.063-1.637-3.097-2.451c-0.396-0.311-0.832-0.344-1.258-0.074
				c-0.42,0.264-0.546,0.693-0.396,1.135c0.086,0.26,0.3,0.512,0.521,0.684c2.036,1.553,4.065,3.119,6.141,4.621
				c1.728,1.25,1.594,1.201,3.342,0.006c3.914-2.676,7.668-5.543,10.774-9.166c1.178-1.375,2.244-2.832,2.812-4.574
				c0.298-0.914,0.491-1.863,0.732-2.795v-1.768c-0.298-1.043-0.486-2.131-0.911-3.117c-1.52-3.535-5.286-5.746-9.12-5.449
				c-2.307,0.18-3.482,0.662-5.928,2.436c-3.823-2.893-7.82-3.451-11.971-0.768c-1.966,1.27-3.176,3.16-3.76,5.426
				c-0.562,2.18-0.23,4.293,0.576,6.424H4.198c-0.958,0-1.737-0.779-1.737-1.736V14.857c0-0.619,0.333-1.195,0.868-1.506
				L22.014,2.57c0.531-0.307,1.194-0.309,1.728-0.006L42.89,13.477c0.545,0.311,0.881,0.893,0.878,1.518L43.66,36.891
				c-0.003,0.621-0.34,1.197-0.88,1.502L23.745,49.193c-0.534,0.305-1.196,0.301-1.729-0.008L1.756,37.445
				c-0.559-0.324-1.273-0.135-1.598,0.424c-0.324,0.561-0.134,1.275,0.425,1.6l20.261,11.742c0.63,0.365,1.337,0.547,2.045,0.547
				c0.694,0,1.39-0.176,2.012-0.529l19.035-10.801c1.266-0.719,2.057-2.068,2.064-3.525l0.106-21.896
				C46.113,13.537,45.324,12.172,44.049,11.443"/>
		</g>
	</g>
</g>
</svg>
