<?xml version="1.0" encoding="utf-8"?>
<!-- Generator: Adobe Illustrator 16.0.0, SVG Export Plug-In . SVG Version: 6.00 Build 0)  -->
<!DOCTYPE svg PUBLIC "-//W3C//DTD SVG 1.1//EN" "http://www.w3.org/Graphics/SVG/1.1/DTD/svg11.dtd">
<svg version="1.1" id="Layer_1" xmlns="http://www.w3.org/2000/svg" xmlns:xlink="http://www.w3.org/1999/xlink" x="0px" y="0px"
	 width="125.461px" height="112.253px" viewBox="0 0 125.461 112.253" enable-background="new 0 0 125.461 112.253"
	 xml:space="preserve">
<g>
	<g>
		<g>
			<rect x="3.562" y="22.086" fill="#FFFFFF" width="96" height="86.019"/>
		</g>
		<g>
			<polygon fill="#6AA9CC" points="116.062,81.938 74.729,81.938 74.729,60.253 116.062,60.253 123.062,71.42 			"/>
		</g>
		<g>
			<rect x="3.562" y="35.919" fill="#6AA9CC" width="109.5" height="72.185"/>
		</g>
		<g>
			<g>
				<path fill="#41829F" d="M125.461,71.272c0-6.188-3.867-11.287-9.281-13.307V39.102c0-3.251-2.636-6.03-6.031-6.03h-7.892v-8.824
					c0-4.182-3.409-6.503-6.646-6.503h-85.24c-5.099,0-9.282,3.71-10.213,8.508l0,0C0,26.87,0,27.485,0,28.259
					c0,0.616,0,1.088,0.158,1.547v5.099C0,35.22,0,35.521,0,35.836v65.903c0,5.729,4.641,10.514,10.514,10.514h99.778
					c3.252,0,6.03-2.636,6.03-6.031V84.579C121.594,82.574,125.461,77.46,125.461,71.272z M10.371,23.475h85.24
					c0.931,0,0.931,0.315,0.931,0.773v8.824h-8.822h-6.962H10.371c-0.315,0-0.616,0-0.931-0.158c-0.158,0-0.158,0-0.315-0.158
					c-0.158,0-0.315-0.158-0.459-0.158c-0.157,0-0.157-0.158-0.314-0.158c-0.158,0-0.315-0.158-0.459-0.158
					c-0.157,0-0.157-0.157-0.315-0.315s-0.158-0.158-0.315-0.315c-0.158-0.158-0.158-0.158-0.315-0.315
					C6.79,31.181,6.79,31.181,6.79,31.023c-0.158-0.158-0.158-0.315-0.316-0.459l-0.157-0.157c-0.158-0.158-0.158-0.315-0.315-0.616
					l0,0c-0.157-0.315-0.157-0.458-0.157-0.773l0,0c0-0.315-0.158-0.458-0.158-0.773s0-0.458,0.158-0.773l0,0v-0.158
					C6.188,25.179,8.05,23.475,10.371,23.475z M110.449,106.394c0,0.158-0.157,0.316-0.314,0.316H10.371
					c-2.636,0-4.799-2.164-4.799-4.799V37.555c0.158,0,0.158,0,0.315,0.158c0.158,0.158,0.458,0.158,0.616,0.315
					c0.158,0,0.315,0.158,0.458,0.158c0.157,0.158,0.458,0.158,0.773,0.158c0.157,0,0.315,0,0.458,0.158
					c0.315,0,0.458,0.158,0.773,0.158c0.158,0,0.315,0,0.315,0c0.315,0,0.773,0,1.232,0h69.928c0.158,0,0.158,0,0.315,0h6.961h0.158
					H99.32h10.828c0.158,0,0.315,0.158,0.315,0.315V56.92H96.541c-7.892,0-14.237,6.346-14.237,14.239l0,0l0,0
					c0,7.892,6.346,14.236,14.237,14.236h13.923v21h-0.015V106.394z M112.77,79.624L112.77,79.624
					c-0.615,0.157-1.088,0.157-1.547,0.157H96.527c-4.641,0-8.509-3.868-8.509-8.509s3.868-8.508,8.509-8.508h14.695
					c0.459,0,1.089,0,1.547,0.158l0,0c4.025,0.773,6.962,4.182,6.962,8.351C119.731,75.441,116.795,78.851,112.77,79.624z
					 M101.799,71.272c0,1.705-1.39,3.095-3.094,3.095c-1.705,0-3.095-1.39-3.095-3.095c0-1.704,1.39-3.094,3.095-3.094
					C100.409,68.179,101.799,69.568,101.799,71.272z"/>
			</g>
		</g>
		<g>
			<g>
				<path fill="#FFCD05" d="M48.714,23.745c0-8.433,4.926-15.697,12.046-19.128C57.975,3.274,54.862,2.5,51.562,2.5
					c-11.733,0-21.245,9.512-21.245,21.245S39.83,44.99,51.562,44.99c3.3,0,6.412-0.774,9.198-2.117
					C53.641,39.442,48.714,32.178,48.714,23.745z"/>
			</g>
			<g>
				<path fill="#F6EB16" d="M72.808,23.745c0-8.433-4.927-15.697-12.047-19.128c-7.12,3.431-12.046,10.695-12.046,19.128
					s4.926,15.697,12.046,19.128C67.881,39.442,72.808,32.178,72.808,23.745z"/>
			</g>
		</g>
		<g>
			<g>
				<path fill="#41829F" d="M51.562,47.49c-13.093,0-23.745-10.652-23.745-23.745S38.469,0,51.562,0
					c13.093,0,23.745,10.652,23.745,23.745S64.655,47.49,51.562,47.49z M51.562,5c-10.336,0-18.745,8.409-18.745,18.745
					S41.227,42.49,51.562,42.49s18.745-8.409,18.745-18.745S61.898,5,51.562,5z"/>
			</g>
		</g>
		<g>
			<rect x="18.062" y="38.665" fill="#6AA9CC" width="66.666" height="24.254"/>
		</g>
		<g>
			<rect x="15.562" y="33.072" fill="#41829F" width="74.5" height="5.586"/>
		</g>
	</g>
	<g>
		<g>
			<defs>
				<path id="SVGID_1_" d="M67.456,59.089l-17.253-9.831c-1.128-0.643-2.528-0.64-3.655,0.01l-16.832,9.715
					c-1.135,0.653-1.838,1.873-1.838,3.181v9.479c0,2.025,1.648,3.674,3.673,3.674h4.034c0.066,0,0.129-0.009,0.191-0.021
					c2.43-0.009,4.859-0.011,7.289,0.017c0.832,0.01,1.316-0.275,1.584-1.057c0.203-0.595,0.495-1.158,0.799-1.851
					c0.429,1.804,0.832,3.47,1.219,5.14c0.111,0.48,0.322,0.861,0.842,0.939c0.53,0.081,0.824-0.258,1.072-0.67
					c0.771-1.285,1.564-2.555,2.324-3.846c0.176-0.299,0.378-0.393,0.712-0.382c0.765,0.024,1.53,0.018,2.296,0.003
					c0.664-0.013,1.052-0.375,1.049-0.94c-0.003-0.576-0.387-0.915-1.058-0.919c-0.968-0.006-1.938,0.03-2.905-0.013
					c-0.663-0.029-1.077,0.222-1.396,0.793c-0.477,0.855-1.012,1.677-1.588,2.618c-0.172-0.713-0.32-1.314-0.463-1.914
					c-0.31-1.305-0.617-2.609-0.929-3.914c-0.104-0.435-0.358-0.723-0.827-0.767c-0.465-0.044-0.772,0.182-0.965,0.589
					c-0.067,0.142-0.129,0.285-0.19,0.428c-0.511,1.173-1.009,2.35-1.538,3.512c-0.072,0.158-0.29,0.351-0.443,0.354
					c-1.656,0.024-3.312,0.021-4.967,0.006c-0.123-0.001-0.304-0.104-0.357-0.209c-0.756-1.476-1.18-3.033-0.915-4.695
					c0.702-4.411,5.263-6.861,9.347-5.047c0.883,0.393,1.642,0.946,2.291,1.666c0.534,0.592,1.096,0.58,1.644,0
					c0.086-0.09,0.169-0.184,0.256-0.273c2.909-2.983,7.919-2.565,10.251,0.865c1.544,2.271,1.488,4.654,0.422,7.078
					c-0.585,1.33-1.485,2.453-2.459,3.516c-2.666,2.906-5.77,5.289-9.013,7.504c-0.222,0.15-0.371,0.132-0.576-0.018
					c-0.972-0.706-1.967-1.381-2.927-2.104c-0.947-0.713-1.859-1.473-2.791-2.207c-0.356-0.28-0.749-0.311-1.132-0.068
					c-0.378,0.238-0.491,0.625-0.356,1.024c0.078,0.233,0.27,0.462,0.47,0.613c1.835,1.4,3.663,2.812,5.532,4.165
					c1.558,1.127,1.437,1.082,3.012,0.006c3.525-2.41,6.908-4.996,9.707-8.26c1.062-1.237,2.021-2.551,2.534-4.121
					c0.269-0.822,0.442-1.678,0.66-2.518v-1.594c-0.269-0.938-0.438-1.92-0.82-2.809c-1.37-3.184-4.765-5.176-8.218-4.908
					c-2.078,0.16-3.138,0.596-5.342,2.194c-3.445-2.606-7.045-3.108-10.784-0.692c-1.772,1.145-2.861,2.848-3.388,4.889
					c-0.508,1.964-0.209,3.869,0.519,5.788h-3.707c-0.862,0-1.565-0.702-1.565-1.565v-9.479c0-0.558,0.3-1.077,0.783-1.356
					l16.834-9.713c0.479-0.276,1.076-0.278,1.557-0.004l17.252,9.83c0.49,0.28,0.795,0.805,0.792,1.368l-0.097,19.729
					c-0.002,0.56-0.307,1.078-0.793,1.354l-17.15,9.731c-0.481,0.272-1.078,0.271-1.558-0.008L29.352,82.516
					c-0.505-0.292-1.149-0.12-1.44,0.384c-0.292,0.503-0.121,1.148,0.383,1.439l18.254,10.58c0.568,0.328,1.205,0.493,1.843,0.493
					c0.626,0,1.253-0.159,1.812-0.478l17.15-9.73c1.142-0.648,1.854-1.865,1.86-3.177l0.096-19.729
					C69.317,60.975,68.606,59.745,67.456,59.089z"/>
			</defs>
			<use xlink:href="#SVGID_1_"  overflow="visible" fill="#FFFFFF"/>
			<clipPath id="SVGID_2_">
				<use xlink:href="#SVGID_1_"  overflow="visible"/>
			</clipPath>
			<g transform="matrix(.13333 0 0 -.13333 0 126.533)" clip-path="url(#SVGID_2_)">
				<g>
					<path fill="#FFFFFF" d="M505.933,505.844l-129.4,73.731c-8.46,4.819-18.963,4.797-27.415-0.077l-126.243-72.863
						c-8.511-4.9-13.785-14.048-13.785-23.855v-71.098c0-15.191,12.364-27.554,27.547-27.554h30.257
						c0.498,0,0.967,0.066,1.436,0.154c18.223,0.066,36.446,0.081,54.669-0.125c6.24-0.073,9.873,2.065,11.88,7.925
						c1.523,4.461,3.714,8.687,5.991,13.88c3.215-13.528,6.24-26.024,9.141-38.548c0.835-3.604,2.417-6.46,6.314-7.046
						c3.977-0.608,6.182,1.934,8.042,5.025c5.786,9.639,11.734,19.161,17.432,28.844c1.318,2.241,2.834,2.944,5.34,2.864
						c5.735-0.183,11.477-0.132,17.219-0.022c4.981,0.095,7.888,2.812,7.866,7.053c-0.022,4.321-2.9,6.863-7.932,6.892
						c-7.258,0.044-14.539-0.227-21.79,0.095c-4.973,0.22-8.079-1.663-10.474-5.947c-3.574-6.416-7.588-12.576-11.909-19.637
						c-1.289,5.347-2.402,9.859-3.472,14.356c-2.322,9.785-4.629,19.571-6.966,29.356c-0.784,3.26-2.688,5.42-6.204,5.75
						c-3.486,0.33-5.793-1.362-7.237-4.417c-0.505-1.062-0.967-2.139-1.428-3.208c-3.831-8.797-7.566-17.623-11.536-26.339
						c-0.542-1.187-2.175-2.629-3.325-2.651c-12.422-0.183-24.837-0.154-37.252-0.044c-0.923,0.007-2.278,0.776-2.681,1.567
						c-5.669,11.067-8.848,22.75-6.863,35.216c5.266,33.084,39.471,51.461,70.102,37.853c6.621-2.945,12.312-7.097,17.183-12.496
						c4.006-4.438,8.218-4.351,12.327,0c0.645,0.674,1.267,1.377,1.919,2.051c21.82,22.376,59.394,19.241,76.884-6.49
						c11.58-17.037,11.162-34.908,3.164-53.087c-4.387-9.976-11.141-18.399-18.443-26.368
						c-19.996-21.797-43.273-39.669-67.597-56.281c-1.663-1.128-2.783-0.989-4.322,0.132c-7.288,5.296-14.751,10.357-21.951,15.777
						c-7.105,5.347-13.946,11.045-20.933,16.553c-2.673,2.102-5.618,2.329-8.489,0.513c-2.834-1.787-3.684-4.688-2.673-7.683
						c0.586-1.751,2.021-3.465,3.523-4.6c13.763-10.503,27.474-21.087,41.493-31.239c11.683-8.452,10.774-8.115,22.589-0.044
						c26.441,18.077,51.813,37.472,72.804,61.95c7.962,9.28,15.162,19.131,19.007,30.909c2.014,6.167,3.318,12.583,4.951,18.882
						v11.954c-2.014,7.039-3.289,14.4-6.153,21.065c-10.276,23.877-35.736,38.819-61.635,36.812
						c-15.586-1.201-23.533-4.468-40.064-16.458c-25.841,19.549-52.838,23.313-80.884,5.193
						c-13.294-8.584-21.46-21.358-25.408-36.666c-3.809-14.729-1.567-29.019,3.889-43.412h-27.803
						c-6.467,0-11.741,5.266-11.741,11.741v71.098c0,4.182,2.249,8.079,5.874,10.174l126.258,72.852
						c3.596,2.073,8.071,2.087,11.675,0.033l129.393-73.727c3.677-2.102,5.962-6.035,5.94-10.261l-0.725-147.968
						c-0.015-4.197-2.3-8.086-5.948-10.159l-128.631-72.988c-3.611-2.043-8.086-2.029-11.682,0.059l-136.908,79.345
						c-3.787,2.19-8.621,0.901-10.803-2.878c-2.19-3.772-0.908-8.614,2.871-10.796l136.908-79.353
						c4.263-2.461,9.038-3.699,13.821-3.699c4.695,0,9.397,1.194,13.594,3.582l128.631,72.98
						c8.562,4.864,13.902,13.99,13.953,23.826l0.718,147.975C519.893,491.7,514.561,500.922,505.933,505.844"/>
				</g>
			</g>
		</g>
	</g>
</g>
</svg>
